<?xml version="1.0" encoding="utf-8"?>
<!-- Generator: Adobe Illustrator 18.0.0, SVG Export Plug-In . SVG Version: 6.00 Build 0)  -->
<!DOCTYPE svg PUBLIC "-//W3C//DTD SVG 1.1 Tiny//EN" "http://www.w3.org/Graphics/SVG/1.1/DTD/svg11-tiny.dtd">
<svg version="1.1" baseProfile="tiny" id="Vulkan" xmlns="http://www.w3.org/2000/svg" xmlns:xlink="http://www.w3.org/1999/xlink"
	 x="0px" y="0px" viewBox="0 0 1300 500" xml:space="preserve">
<g id="TM_2_">
	<path d="M1191.6,366.2h-7.3v19.1h-6.4v-19.1h-7.3v-5.5h21.1V366.2L1191.6,366.2z"/>
	<path d="M1194.5,360.7h9.5l4.2,16.4h0.1l4.2-16.4h9.5v24.6h-6v-18.7h-0.1l-5.2,18.7h-4.9l-5.2-18.7h-0.1v18.7h-6V360.7
		L1194.5,360.7z"/>
</g>
<g>
	<path fill="#A41E22" d="M724.1,385.1h-40.6c0,0,0-99,0-129.7c13,7.2,30.1,20.5,40.6,33.3V385.1z"/>
	<g>
		<path fill="#A41E22" d="M381.8,385.1h-50.6l-66-204h46l45.4,143.5h0.6l46-143.5h46.3L381.8,385.1z"/>
		<path fill="#A41E22" d="M585.5,385.1h-38.6v-20.6h-0.9c-5.1,8.6-11.8,14.8-20,18.6c-8.2,3.8-16.6,5.7-25.1,5.7
			c-10.9,0-19.8-1.4-26.7-4.3c-7-2.9-12.4-6.9-16.4-12.1c-4-5.2-6.8-11.6-8.4-19.1c-1.6-7.5-2.4-15.9-2.4-25v-90.9h40.6v83.4
			c0,12.2,1.9,21.3,5.7,27.3c3.8,6,10.6,9,20.3,9c11,0,19.1-3.3,24-9.9c5-6.6,7.4-17.4,7.4-32.4v-77.4h40.6V385.1z"/>
	</g>
	<polygon fill="#A41E22" points="730.8,296.2 730.7,290.5 781.9,237.3 829.9,237.3 774.2,291.6 836.2,385.1 787,385.1 	"/>
	<path fill="#A41E22" d="M843.6,282.8c0.6-9.5,3-17.4,7.2-23.7c4.2-6.3,9.5-11.3,16-15.1c6.5-3.8,13.8-6.5,21.9-8.1
		c8.1-1.6,16.2-2.4,24.4-2.4c7.4,0,15,0.5,22.6,1.6c7.6,1.1,14.6,3.1,20.9,6.1c6.3,3.1,11.4,7.3,15.4,12.7c4,5.4,6,12.6,6,21.6v76.9
		c0,6.7,0.4,13.1,1.1,19.1c0.8,6.1,2.1,10.7,4,13.7h-41.2c-0.8-2.3-1.4-4.6-1.9-7c-0.5-2.4-0.8-4.8-1-7.3
		c-6.5,6.7-14.1,11.3-22.9,14c-8.8,2.7-17.7,4-26.9,4c-7,0-13.6-0.9-19.7-2.6c-6.1-1.7-11.4-4.4-16-8c-4.6-3.6-8.2-8.2-10.7-13.7
		c-2.6-5.5-3.9-12.1-3.9-19.7c0-8.4,1.5-15.3,4.4-20.7c3-5.4,6.8-9.8,11.4-13c4.7-3.2,10-5.7,16-7.3c6-1.6,12-2.9,18.1-3.9
		c6.1-0.9,12.1-1.7,18-2.3c5.9-0.6,11.1-1.4,15.7-2.6c4.6-1.1,8.2-2.8,10.9-5c2.7-2.2,3.9-5.4,3.7-9.6c0-4.4-0.7-7.9-2.2-10.4
		c-1.4-2.6-3.3-4.6-5.7-6c-2.4-1.4-5.1-2.4-8.3-2.9c-3.1-0.5-6.5-0.7-10.1-0.7c-8,0-14.3,1.7-18.9,5.1c-4.6,3.4-7.2,9.1-8,17.1
		H843.6z M937.4,312.8c-1.7,1.5-3.9,2.7-6.4,3.6c-2.6,0.9-5.3,1.6-8.3,2.2c-2.9,0.6-6,1-9.3,1.4c-3.2,0.4-6.5,0.9-9.7,1.4
		c-3,0.6-6,1.3-9,2.3c-3,1-5.5,2.2-7.7,3.9c-2.2,1.6-4,3.7-5.3,6.1c-1.3,2.5-2,5.6-2,9.4c0,3.6,0.7,6.7,2,9.1
		c1.3,2.5,3.1,4.4,5.4,5.9c2.3,1.4,5,2.4,8,3c3.1,0.6,6.2,0.9,9.4,0.9c8,0,14.2-1.3,18.6-4c4.4-2.7,7.6-5.9,9.7-9.6
		c2.1-3.7,3.4-7.5,3.9-11.3c0.5-3.8,0.7-6.9,0.7-9.1V312.8z"/>
	<path fill="#A41E22" d="M1004.2,237.3h38.6v20.6h0.9c5.1-8.6,11.8-14.8,20-18.7c8.2-3.9,16.6-5.9,25.1-5.9
		c10.9,0,19.8,1.5,26.7,4.4c7,3,12.4,7.1,16.4,12.3c4,5.2,6.8,11.6,8.4,19.1c1.6,7.5,2.4,15.9,2.4,25v90.9h-40.6v-83.4
		c0-12.2-1.9-21.3-5.7-27.3c-3.8-6-10.6-9-20.3-9c-11,0-19,3.3-24,9.9c-5,6.6-7.4,17.4-7.4,32.4v77.4h-40.6V237.3z"/>
	<g>
		<path fill="#A41E22" d="M612.4,211.8v173.2h40.6V234.2C639.9,226.2,626.4,218.7,612.4,211.8z"/>
	</g>
	<path fill="#A41E22" d="M198.4,219.2c23.5-68.9,164.2-94.2,314.1-56.4c90,22.6,163.5,66.5,211.5,109.9
		C702.3,215.1,596.7,133.1,451.2,105c-164.5-31.8-326.7-3.9-346.8,69.1c-14.5,52.7,49.2,114.5,147.7,156.7
		C207.8,295,186.3,254.8,198.4,219.2z"/>
	<g>
		<path fill="#A41E22" d="M724.2,247.6V181h-40.6v20.2C700.9,216.7,714.6,232.4,724.2,247.6z"/>
	</g>
</g>
</svg>
