<?xml version="1.0" encoding="UTF-8"?>
<svg xmlns="http://www.w3.org/2000/svg" xmlns:xlink="http://www.w3.org/1999/xlink" width="55.128pt" height="66.467pt" viewBox="0 0 55.128 66.467" version="1.1">
<defs>
<clipPath id="clip1">
  <path d="M 0 2 L 29 2 L 29 66.46875 L 0 66.46875 Z M 0 2 "/>
</clipPath>
<clipPath id="clip2">
  <path d="M 3 2 L 40 2 L 40 66.46875 L 3 66.46875 Z M 3 2 "/>
</clipPath>
<clipPath id="clip3">
  <path d="M 15 2 L 52 2 L 52 66.46875 L 15 66.46875 Z M 15 2 "/>
</clipPath>
<clipPath id="clip4">
  <path d="M 26 2 L 55.128906 2 L 55.128906 66.46875 L 26 66.46875 Z M 26 2 "/>
</clipPath>
</defs>
<g id="surface1">
<path style=" stroke:none;fill-rule:nonzero;fill:rgb(0%,0%,0%);fill-opacity:1;" d="M 0 66.464844 L 0 0 L 55.128906 0 L 55.128906 66.464844 Z M 0 66.464844 "/>
<path style="fill:none;stroke-width:1.19553;stroke-linecap:butt;stroke-linejoin:miter;stroke:rgb(100%,100%,100%);stroke-opacity:1;stroke-miterlimit:10;" d="M -5.669281 73.703344 L -5.669281 85.039281 L 5.670562 85.039281 L 5.670562 73.703344 Z M -5.669281 73.703344 " transform="matrix(1,0,0,-1,10.556,89.926)"/>
<g clip-path="url(#clip1)" clip-rule="nonzero">
<path style="fill:none;stroke-width:1.19553;stroke-linecap:butt;stroke-linejoin:miter;stroke:rgb(100%,100%,100%);stroke-opacity:1;stroke-miterlimit:10;" d="M -0.0013125 70.867406 C -0.0013125 70.156469 1.135406 69.804906 1.135406 69.093969 C 1.135406 68.578344 0.565094 68.129125 -0.0013125 67.679906 C -0.567719 67.226781 -1.134125 66.777563 -1.134125 66.261938 C -1.134125 65.742406 -0.567719 65.293188 -0.0013125 64.843969 C 0.565094 64.390844 1.135406 63.941625 1.135406 63.426 C 1.135406 62.910375 0.565094 62.461156 -0.0013125 62.008031 C -0.567719 61.558813 -1.134125 61.109594 -1.134125 60.590063 C -1.134125 60.074438 -0.567719 59.625219 -0.0013125 59.176 C 0.565094 58.722875 1.135406 58.273656 1.135406 57.758031 C 1.135406 57.2385 0.565094 56.789281 -0.0013125 56.340063 C -0.567719 55.886938 -1.134125 55.437719 -1.134125 54.922094 C -1.134125 54.406469 -0.567719 53.95725 -0.0013125 53.504125 C 0.565094 53.054906 1.135406 52.605688 1.135406 52.086156 C 1.135406 51.570531 0.565094 51.121313 -0.0013125 50.668188 C -0.567719 50.218969 -1.134125 49.76975 -1.134125 49.254125 C -1.134125 48.734594 -0.567719 48.285375 -0.0013125 47.836156 C 0.565094 47.383031 1.135406 46.933813 1.135406 46.418188 C 1.135406 45.902563 0.565094 45.453344 -0.0013125 45.000219 C -0.567719 44.551 -1.134125 44.101781 -1.134125 43.58225 C -1.134125 43.066625 -0.567719 42.617406 -0.0013125 42.164281 C 0.565094 41.715063 1.135406 41.265844 1.135406 40.750219 C 1.135406 40.230688 0.565094 39.781469 -0.0013125 39.33225 C -0.567719 38.879125 -1.134125 38.429906 -1.134125 37.914281 C -1.134125 37.398656 -0.567719 36.949438 -0.0013125 36.496313 C 0.565094 36.047094 1.135406 35.597875 1.135406 35.078344 C 1.135406 34.371313 -0.0013125 34.015844 -0.0013125 33.308813 L -0.0013125 29.543188 " transform="matrix(1,0,0,-1,10.556,89.926)"/>
</g>
<path style="fill:none;stroke-width:1.19553;stroke-linecap:round;stroke-linejoin:round;stroke:rgb(100%,100%,100%);stroke-opacity:1;stroke-miterlimit:10;" d="M -3.028315 3.830719 C -2.473628 1.533844 -1.243159 0.447906 -0.00097125 -0.0013125 C -1.243159 -0.446625 -2.473628 -1.532563 -3.028315 -3.829438 " transform="matrix(0,1,1,0,10.556,60.98144)"/>
<path style="fill:none;stroke-width:1.19553;stroke-linecap:butt;stroke-linejoin:miter;stroke:rgb(100%,100%,100%);stroke-opacity:1;stroke-miterlimit:10;" d="M 5.670562 73.703344 L 5.670562 85.039281 L 17.0065 85.039281 L 17.0065 73.703344 Z M 5.670562 73.703344 " transform="matrix(1,0,0,-1,10.556,89.926)"/>
<g clip-path="url(#clip2)" clip-rule="nonzero">
<path style="fill:none;stroke-width:1.19553;stroke-linecap:butt;stroke-linejoin:miter;stroke:rgb(100%,100%,100%);stroke-opacity:1;stroke-miterlimit:10;" d="M 11.338531 70.867406 C 11.338531 70.156469 12.471344 69.804906 12.471344 69.093969 C 12.471344 68.578344 11.904937 68.129125 11.338531 67.679906 C 10.772125 67.226781 10.205719 66.777563 10.205719 66.261938 C 10.205719 65.742406 10.772125 65.293188 11.338531 64.843969 C 11.904937 64.390844 12.471344 63.941625 12.471344 63.426 C 12.471344 62.910375 11.904937 62.461156 11.338531 62.008031 C 10.772125 61.558813 10.205719 61.109594 10.205719 60.590063 C 10.205719 60.074438 10.772125 59.625219 11.338531 59.176 C 11.904937 58.722875 12.471344 58.273656 12.471344 57.758031 C 12.471344 57.2385 11.904937 56.789281 11.338531 56.340063 C 10.772125 55.886938 10.205719 55.437719 10.205719 54.922094 C 10.205719 54.406469 10.772125 53.95725 11.338531 53.504125 C 11.904937 53.054906 12.471344 52.605688 12.471344 52.086156 C 12.471344 51.570531 11.904937 51.121313 11.338531 50.668188 C 10.772125 50.218969 10.205719 49.76975 10.205719 49.254125 C 10.205719 48.734594 10.772125 48.285375 11.338531 47.836156 C 11.904937 47.383031 12.471344 46.933813 12.471344 46.418188 C 12.471344 45.902563 11.904937 45.453344 11.338531 45.000219 C 10.772125 44.551 10.205719 44.101781 10.205719 43.58225 C 10.205719 43.066625 10.772125 42.617406 11.338531 42.164281 C 11.904937 41.715063 12.471344 41.265844 12.471344 40.750219 C 12.471344 40.230688 11.904937 39.781469 11.338531 39.33225 C 10.772125 38.879125 10.205719 38.429906 10.205719 37.914281 C 10.205719 37.398656 10.772125 36.949438 11.338531 36.496313 C 11.904937 36.047094 12.471344 35.597875 12.471344 35.078344 C 12.471344 34.371313 11.338531 34.015844 11.338531 33.308813 L 11.338531 29.543188 " transform="matrix(1,0,0,-1,10.556,89.926)"/>
</g>
<path style="fill:none;stroke-width:1.19553;stroke-linecap:round;stroke-linejoin:round;stroke:rgb(100%,100%,100%);stroke-opacity:1;stroke-miterlimit:10;" d="M -3.028315 3.832012 C -2.473628 1.531231 -1.243159 0.445294 -0.00097125 -0.00001875 C -1.243159 -0.445331 -2.473628 -1.531269 -3.028315 -3.83205 " transform="matrix(0,1,1,0,21.89455,60.98144)"/>
<path style="fill:none;stroke-width:1.19553;stroke-linecap:butt;stroke-linejoin:miter;stroke:rgb(100%,100%,100%);stroke-opacity:1;stroke-miterlimit:10;" d="M 17.0065 73.703344 L 17.0065 85.039281 L 28.346344 85.039281 L 28.346344 73.703344 Z M 17.0065 73.703344 " transform="matrix(1,0,0,-1,10.556,89.926)"/>
<g clip-path="url(#clip3)" clip-rule="nonzero">
<path style="fill:none;stroke-width:1.19553;stroke-linecap:butt;stroke-linejoin:miter;stroke:rgb(100%,100%,100%);stroke-opacity:1;stroke-miterlimit:10;" d="M 22.678375 70.867406 C 22.678375 70.156469 23.811187 69.804906 23.811187 69.093969 C 23.811187 68.578344 23.244781 68.129125 22.678375 67.679906 C 22.111969 67.226781 21.541656 66.777563 21.541656 66.261938 C 21.541656 65.742406 22.111969 65.293188 22.678375 64.843969 C 23.244781 64.390844 23.811187 63.941625 23.811187 63.426 C 23.811187 62.910375 23.244781 62.461156 22.678375 62.008031 C 22.111969 61.558813 21.541656 61.109594 21.541656 60.590063 C 21.541656 60.074438 22.111969 59.625219 22.678375 59.176 C 23.244781 58.722875 23.811187 58.273656 23.811187 57.758031 C 23.811187 57.2385 23.244781 56.789281 22.678375 56.340063 C 22.111969 55.886938 21.541656 55.437719 21.541656 54.922094 C 21.541656 54.406469 22.111969 53.95725 22.678375 53.504125 C 23.244781 53.054906 23.811187 52.605688 23.811187 52.086156 C 23.811187 51.570531 23.244781 51.121313 22.678375 50.668188 C 22.111969 50.218969 21.541656 49.76975 21.541656 49.254125 C 21.541656 48.734594 22.111969 48.285375 22.678375 47.836156 C 23.244781 47.383031 23.811187 46.933813 23.811187 46.418188 C 23.811187 45.902563 23.244781 45.453344 22.678375 45.000219 C 22.111969 44.551 21.541656 44.101781 21.541656 43.58225 C 21.541656 43.066625 22.111969 42.617406 22.678375 42.164281 C 23.244781 41.715063 23.811187 41.265844 23.811187 40.750219 C 23.811187 40.230688 23.244781 39.781469 22.678375 39.33225 C 22.111969 38.879125 21.541656 38.429906 21.541656 37.914281 C 21.541656 37.398656 22.111969 36.949438 22.678375 36.496313 C 23.244781 36.047094 23.811187 35.597875 23.811187 35.078344 C 23.811187 34.371313 22.678375 34.015844 22.678375 33.308813 L 22.678375 29.543188 " transform="matrix(1,0,0,-1,10.556,89.926)"/>
</g>
<path style="fill:none;stroke-width:1.19553;stroke-linecap:round;stroke-linejoin:round;stroke:rgb(100%,100%,100%);stroke-opacity:1;stroke-miterlimit:10;" d="M -3.028315 3.8294 C -2.473628 1.532525 -1.243159 0.446587 -0.00097125 0.001275 C -1.243159 -0.447944 -2.473628 -1.533881 -3.028315 -3.830756 " transform="matrix(0,1,1,0,33.2331,60.98144)"/>
<path style="fill:none;stroke-width:1.19553;stroke-linecap:butt;stroke-linejoin:miter;stroke:rgb(100%,100%,100%);stroke-opacity:1;stroke-miterlimit:10;" d="M 28.346344 73.703344 L 28.346344 85.039281 L 39.686188 85.039281 L 39.686188 73.703344 Z M 28.346344 73.703344 " transform="matrix(1,0,0,-1,10.556,89.926)"/>
<g clip-path="url(#clip4)" clip-rule="nonzero">
<path style="fill:none;stroke-width:1.19553;stroke-linecap:butt;stroke-linejoin:miter;stroke:rgb(100%,100%,100%);stroke-opacity:1;stroke-miterlimit:10;" d="M 34.014313 70.867406 C 34.014313 70.156469 35.151031 69.804906 35.151031 69.093969 C 35.151031 68.578344 34.580719 68.129125 34.014313 67.679906 C 33.447906 67.226781 32.8815 66.777563 32.8815 66.261938 C 32.8815 65.742406 33.447906 65.293188 34.014313 64.843969 C 34.580719 64.390844 35.151031 63.941625 35.151031 63.426 C 35.151031 62.910375 34.580719 62.461156 34.014313 62.008031 C 33.447906 61.558813 32.8815 61.109594 32.8815 60.590063 C 32.8815 60.074438 33.447906 59.625219 34.014313 59.176 C 34.580719 58.722875 35.151031 58.273656 35.151031 57.758031 C 35.151031 57.2385 34.580719 56.789281 34.014313 56.340063 C 33.447906 55.886938 32.8815 55.437719 32.8815 54.922094 C 32.8815 54.406469 33.447906 53.95725 34.014313 53.504125 C 34.580719 53.054906 35.151031 52.605688 35.151031 52.086156 C 35.151031 51.570531 34.580719 51.121313 34.014313 50.668188 C 33.447906 50.218969 32.8815 49.76975 32.8815 49.254125 C 32.8815 48.734594 33.447906 48.285375 34.014313 47.836156 C 34.580719 47.383031 35.151031 46.933813 35.151031 46.418188 C 35.151031 45.902563 34.580719 45.453344 34.014313 45.000219 C 33.447906 44.551 32.8815 44.101781 32.8815 43.58225 C 32.8815 43.066625 33.447906 42.617406 34.014313 42.164281 C 34.580719 41.715063 35.151031 41.265844 35.151031 40.750219 C 35.151031 40.230688 34.580719 39.781469 34.014313 39.33225 C 33.447906 38.879125 32.8815 38.429906 32.8815 37.914281 C 32.8815 37.398656 33.447906 36.949438 34.014313 36.496313 C 34.580719 36.047094 35.151031 35.597875 35.151031 35.078344 C 35.151031 34.371313 34.014313 34.015844 34.014313 33.308813 L 34.014313 29.543188 " transform="matrix(1,0,0,-1,10.556,89.926)"/>
</g>
<path style="fill:none;stroke-width:1.19553;stroke-linecap:round;stroke-linejoin:round;stroke:rgb(100%,100%,100%);stroke-opacity:1;stroke-miterlimit:10;" d="M -3.028315 3.830704 C -2.473628 1.533829 -1.243159 0.447891 -0.00097125 -0.0013275 C -1.243159 -0.44664 -2.473628 -1.532578 -3.028315 -3.829453 " transform="matrix(0,1,1,0,44.57164,60.98144)"/>
</g>
</svg>
