<?xml version="1.0" encoding="UTF-8"?>
<svg xmlns="http://www.w3.org/2000/svg" xmlns:xlink="http://www.w3.org/1999/xlink" width="21.113pt" height="66.467pt" viewBox="0 0 21.113 66.467" version="1.1">
<defs>
<clipPath id="clip1">
  <path d="M 0 2 L 21.113281 2 L 21.113281 66.46875 L 0 66.46875 Z M 0 2 "/>
</clipPath>
</defs>
<g id="surface1">
<path style=" stroke:none;fill-rule:nonzero;fill:rgb(0%,0%,0%);fill-opacity:1;" d="M 0 66.46875 L 0 0 L 21.113281 0 L 21.113281 66.46875 Z M 0 66.46875 "/>
<path style="fill:none;stroke-width:1.19553;stroke-linecap:butt;stroke-linejoin:miter;stroke:rgb(100%,100%,100%);stroke-opacity:1;stroke-miterlimit:10;" d="M -5.669281 45.353438 L -5.669281 56.693281 L 5.670562 56.693281 L 5.670562 45.353438 Z M -5.669281 45.353438 " transform="matrix(1,0,0,-1,10.556,61.58)"/>
<g clip-path="url(#clip1)" clip-rule="nonzero">
<path style="fill:none;stroke-width:1.19553;stroke-linecap:butt;stroke-linejoin:miter;stroke:rgb(100%,100%,100%);stroke-opacity:1;stroke-miterlimit:10;" d="M -0.0013125 42.521406 C -0.0013125 41.810469 1.135406 41.458906 1.135406 40.747969 C 1.135406 40.232344 0.565094 39.783125 -0.0013125 39.33 C -0.567719 38.880781 -1.134125 38.431563 -1.134125 37.912031 C -1.134125 37.396406 -0.567719 36.947188 -0.0013125 36.497969 C 0.565094 36.044844 1.135406 35.595625 1.135406 35.08 C 1.135406 34.560469 0.565094 34.11125 -0.0013125 33.662031 C -0.567719 33.208906 -1.134125 32.763594 -1.134125 32.244063 C -1.134125 31.728438 -0.567719 31.279219 -0.0013125 30.826094 C 0.565094 30.376875 1.135406 29.927656 1.135406 29.408125 C 1.135406 28.8925 0.565094 28.443281 -0.0013125 27.994063 C -0.567719 27.540938 -1.134125 27.091719 -1.134125 26.576094 C -1.134125 26.056563 -0.567719 25.607344 -0.0013125 25.158125 C 0.565094 24.705 1.135406 24.259688 1.135406 23.740156 C 1.135406 23.224531 0.565094 22.775313 -0.0013125 22.322188 C -0.567719 21.872969 -1.134125 21.42375 -1.134125 20.904219 C -1.134125 20.388594 -0.567719 19.939375 -0.0013125 19.490156 C 0.565094 19.037031 1.135406 18.587813 1.135406 18.072188 C 1.135406 17.552656 0.565094 17.103438 -0.0013125 16.654219 C -0.567719 16.201094 -1.134125 15.755781 -1.134125 15.23625 C -1.134125 14.720625 -0.567719 14.271406 -0.0013125 13.818281 C 0.565094 13.369063 1.135406 12.919844 1.135406 12.400313 C 1.135406 11.884688 0.565094 11.435469 -0.0013125 10.98625 C -0.567719 10.533125 -1.134125 10.083906 -1.134125 9.568281 C -1.134125 9.04875 -0.567719 8.599531 -0.0013125 8.150313 C 0.565094 7.697188 1.135406 7.251875 1.135406 6.732344 C 1.135406 6.025313 -0.0013125 5.669844 -0.0013125 4.962813 L -0.0013125 1.197188 " transform="matrix(1,0,0,-1,10.556,61.58)"/>
</g>
<path style="fill:none;stroke-width:1.19553;stroke-linecap:round;stroke-linejoin:round;stroke:rgb(100%,100%,100%);stroke-opacity:1;stroke-miterlimit:10;" d="M -3.029125 3.830719 C -2.474438 1.533844 -1.243969 0.447906 -0.00178125 -0.0013125 C -1.243969 -0.446625 -2.474438 -1.532563 -3.029125 -3.829438 " transform="matrix(0,1,1,0,10.556,60.98225)"/>
</g>
</svg>
